PathFileType	4	(X/Y/Z)	AB06\squats_1.trc
DataRate	CameraRate	NumFrames	NumMarkers	Units	OrigDataRate	OrigDataStartFrame	OrigNumFrames
200.000000	200.000000	4	35	mm	200.000000	49	392
Frame#	Time	C7			LSHO			LASI			RASI			LPSI			RPSI			LGTR			RGTR			LTHC			LTHL			LTHR			LKNE			LMKNE			LSHC			LSHL			LSHR			LANK			LMANK			LMT1			LMT5			LCAL			RTHC			RTHL			RTHR			RKNE			RMKNE			RSHC			RSHL			RSHR			RANK			RMANK			RMT1			RMT5			RCAL			STRN			
		X1	Y1	Z1	X2	Y2	Z2	X3	Y3	Z3	X4	Y4	Z4	X5	Y5	Z5	X6	Y6	Z6	X7	Y7	Z7	X8	Y8	Z8	X9	Y9	Z9	X10	Y10	Z10	X11	Y11	Z11	X12	Y12	Z12	X13	Y13	Z13	X14	Y14	Z14	X15	Y15	Z15	X16	Y16	Z16	X17	Y17	Z17	X18	Y18	Z18	X19	Y19	Z19	X20	Y20	Z20	X21	Y21	Z21	X22	Y22	Z22	X23	Y23	Z23	X24	Y24	Z24	X25	Y25	Z25	X26	Y26	Z26	X27	Y27	Z27	X28	Y28	Z28	X29	Y29	Z29	X30	Y30	Z30	X31	Y31	Z31	X32	Y32	Z32	X33	Y33	Z33	X34	Y34	Z34	X35	Y35	Z35	

50	45.15	-3601.214439127699	1528.967727655389	2497.480539578878	-3678.217300045936	1448.197435922966	2647.287491009645	-3508.756398239873	994.7473454536836	2619.27314629756	-3505.473990902877	996.5811255472894	2363.527714722576	-3326.448832197783	1020.577476421516	2540.59216770625	-3326.909663609345	1024.395169911568	2441.50981679637	-3437.990250005377	937.5598269334215	2679.820453041202	-3453.723949324155	974.0868644118508	2317.858728072385	-3510.511732187035	829.5225669009042	2727.965162876293	-3631.047949483695	758.7720851981209	2684.577863474692	-3478.634314659762	660.3288849479901	2706.960775228288	-3658.851484605983	528.9108281952718	2791.309442206251	-3691.469438393577	509.2289225650111	2693.463949835514	-3550.791887992716	463.5088385814294	2777.841894490047	-3562.657965084024	225.4059341072586	2756.133356331676	-3471.750822072036	256.070217619776	2718.95230125533	-3458.238392866997	108.3110330839574	2769.944217796702	-3490.910865612056	116.3441106332594	2687.326544979859	-3618.214182902215	49.29389015503072	2713.233482632885	-3568.715855557214	50.58349407430786	2827.786879814894	-3394.237847126065	81.37221143963288	2718.644212977363	-3506.935461157303	635.3462652077149	2286.18757441722	-3531.120466879971	781.8457737402288	2250.778971667784	-3636.581286404152	743.4951629431215	2356.507054750447	-3678.830348646771	525.6252828835899	2229.003293387984	-3698.047294844141	509.4260573590572	2329.109528074522	-3496.345291541069	253.5407837841634	2279.825161881057	-3590.555706142977	458.9633873542199	2215.68492307807	-3588.888569330317	220.3690976695968	2259.510376395091	-3490.419153939979	112.6927086729329	2233.939491934487	-3523.698069610038	118.234427173837	2317.88970386961	-3643.193170515021	51.12192105117537	2300.551316238766	-3610.089039626671	37.56042208650396	2181.450922864162	-3428.06859648481	81.29714321715183	2275.934798919468	-3650.904109692408	1230.296706939201	2497.177311775512	
51	45.155	-3602.264926438412	1524.870567278707	2497.447147324835	-3679.013730949771	1443.792966765727	2647.257355760731	-3507.225965399973	991.3240931475866	2619.353201247729	-3503.87587623338	993.1689725736559	2363.609630071152	-3324.887279124388	1017.420558197148	2540.827831718771	-3325.297568124552	1021.251807402074	2441.713674703975	-3436.456005001161	934.5944446968069	2680.149011916094	-3452.025698524867	971.0112588475685	2317.957227551878	-3509.509819841526	827.4185395485149	2728.249573520884	-3630.733546803505	757.7394260957207	2684.922394243375	-3479.211181224353	657.9097613601406	2707.655340769851	-3660.532279330876	528.0579512764554	2792.050495437957	-3693.231248626234	508.5073368849732	2694.028335569959	-3552.518545227943	462.9778511219954	2778.542317247247	-3563.334103546926	224.9292175433703	2756.29225419337	-3472.523044765886	256.0663026961842	2719.284020264335	-3458.424373995238	108.3110482739999	2769.927349348136	-3491.04252785422	116.3376112651104	2687.306393622095	-3618.263077136746	49.26985993694857	2713.225944027814	-3568.732121315501	50.58287321507523	2827.77369216033	-3394.27472520317	81.40578913095655	2718.643930650235	-3507.608711509174	633.1858387491992	2285.927187976143	-3530.296079753195	779.8704974119701	2250.559926849549	-3636.421326422584	742.554192514057	2356.032216932159	-3680.406855174869	524.9543975712045	2228.336836775729	-3699.799974509624	508.8227676882931	2328.527654233571	-3497.078314247292	253.5645477440611	2279.572072937807	-3592.135637276978	458.4494745162076	2215.129640441879	-3589.471751224223	219.992188224264	2259.336656631712	-3490.588493827685	112.6811791216969	2233.890284720072	-3523.806886931548	118.247576268475	2317.886634884233	-3643.213618000346	51.11410515966	2300.545962502952	-3610.085211877564	37.5356533712559	2181.445956844218	-3428.087266160151	81.31232072354261	2275.95097359148	-3650.798605127581	1225.975164446856	2497.287083675428	
52	45.16	-3603.30829504132	1520.729091403758	2497.416569145725	-3679.809142257722	1439.349647128817	2647.227791693848	-3505.702337732832	987.8659498484124	2619.44185620857	-3502.280095151342	989.7368297944149	2363.701451356511	-3323.334381021682	1014.239719448457	2541.075534893673	-3323.693413111022	1018.092582170312	2441.931090711796	-3434.923261655341	931.5977877733096	2680.484536723174	-3450.32866291197	967.9199230025126	2318.062715673454	-3508.491546312075	825.2869880059368	2728.533621967519	-3630.393292640079	756.6845471085618	2685.271450671083	-3479.772595652213	655.4812897329923	2708.341157536089	-3662.17802597255	527.2002612806393	2792.78871977799	-3694.964948394248	507.7841326360919	2694.590223634516	-3554.217198656319	462.4407515395866	2779.23657960147	-3563.990949733521	224.4501925984757	2756.453027425342	-3473.28002237922	256.0556153783734	2719.613238610184	-3458.604326354277	108.306526742608	2769.910578871755	-3491.16879160736	116.3273682507957	2687.288196017492	-3618.309406726675	49.24625461855557	2713.217512083167	-3568.747151172126	50.58341213684345	2827.761057917256	-3394.308321260733	81.43517640511064	2718.641982128131	-3508.257203370167	631.0282675152765	2285.664736965048	-3529.456766251069	777.8891399918562	2250.35281386022	-3636.228483455166	741.6012748613045	2355.574644159765	-3681.938470554365	524.291462580692	2227.671634731273	-3701.513025560987	508.2272030421059	2327.953806171443	-3497.795541096899	253.5860271799906	2279.323548061691	-3593.679065147956	457.9376734892155	2214.580095488711	-3590.038617326558	219.6212461058453	2259.16417303427	-3490.754150048584	112.6711233302222	2233.839742484633	-3523.909949862519	118.260572046301	2317.885084013686	-3643.233451557792	51.10655213991565	2300.540568917667	-3610.081142411792	37.51211965909226	2181.441117322614	-3428.105112320507	81.32599373418346	2275.969129817034	-3650.694534544934	1221.617907495339	2497.396166295011	
53	45.165	-3604.344651723067	1516.544613693227	2497.388727043956	-3680.603529220042	1434.868942113234	2647.198820824429	-3504.184489115908	984.3741001476917	2619.539736196345	-3500.687327203001	986.2864736315304	2363.803608404338	-3321.789452353972	1011.036165886829	2541.334404185401	-3322.097424603076	1014.918781361807	2442.161412424951	-3433.391159085366	928.5707557052871	2680.826656793085	-3448.634317758471	964.8150127537097	2318.175297567745	-3507.456518853714	823.1287796078716	2728.817228681443	-3630.026331316829	755.6080792505509	2685.624236385327	-3480.316863695238	653.0449231189195	2709.018955133344	-3663.787752728098	526.338266374269	2793.524034833732	-3696.669335585468	507.0597139718022	2695.149002804532	-3555.886858451956	461.8977163911963	2779.925096570316	-3564.627997131865	223.968855368936	2756.615420216551	-3474.02117762446	256.0378132431679	2719.940223013045	-3458.777105326531	108.2973350562054	2769.893799467004	-3491.289272396089	116.3132361232281	2687.271759587332	-3618.35295781455	49.22315995901504	2713.208202049304	-3568.760889412335	50.58508455895538	2827.749051889021	-3394.338537172866	81.46013283150772	2718.638363481436	-3508.881747236491	628.8754825538915	2285.396280113971	-3528.604904876969	775.9050075128469	2250.157834525421	-3635.999793547021	740.6356033509002	2355.138502462939	-3683.426143079695	523.6373662811717	2227.00772897559	-3703.186222361924	507.6395468550971	2327.388787512177	-3498.49688156424	253.6056128658895	2279.080266265941	-3595.186030028332	457.4288255764121	2214.036826363944	-3590.58948190339	219.2565894211295	2258.993094709889	-3490.91564310301	112.663229503686	2233.788171702854	-3524.007757070024	118.2731913566144	2317.885300040708	-3643.252613031526	51.09921153789902	2300.535182569175	-3610.076866422739	37.48999791221979	2181.436385290498	-3428.122157954464	81.33834889940033	2275.989481367821	-3650.592272990632	1217.225916542877	2497.50486021383	
